*******************************************************************************
                  The BiG 4 Metallica Slayer Megadeth Anthrax
*******************************************************************************

-------------------------------------------------------------------------------
                              General Information
-------------------------------------------------------------------------------
Type.................: Music DVD
Image Format.........: .iso
Image Created with...: VSO
Burn Tested..........: Yes

Year.................: 2010
Type.................: Live

Audio Format.........: AC-3
Bitrate..............: 192 (CBR)
Hz...................: 48,000
Channels.............: Stereo

Video Format.........: MPEG2
Video Bitrate........: 9008
Resolution...........: 720x480
Color................: 8 bit
FPS..................: 29.970
Source...............: .mkv
Original Format......: PAL
Genre................: Thrash
Movie Information....: http://www.metallica.com/index.asp?item=602847
CD1 Size.............: 4.07 GB

-------------------------------------------------------------------------------
                               Post Information
-------------------------------------------------------------------------------
Posted by............: db666 (The BiG 4 Metallica Slayer Megadeth Anthrax Live in Sofia 2010 720p HDTV x264 DD5 1-MMJ
Posted on............: 2010-07-02

-------------------------------------------------------------------------------
                                 Release Notes
-------------------------------------------------------------------------------
Anthrax set list

1. Caught in a Mosh
2. Got the Time
3. Madhouse
4. Antisocial
5. Indians/Heaven And Hell (Black Sabbath cover)
6. Metal Thrashing Mad
7. I Am The Law


Megadeth set list

1. Holy Wars… the Punishment Due
2. Hangar 18
3. Headcrusher
4. In My Darkest Hour
5. Skin O’ My Teeth
6. Hook In Mouth
7. Sweating Bullets
8. Symphony Of Destruction
9. Peace Sells/Holy Wars reprise


SLAYER set list

1. World Painted Blood
2. War Ensemble
3. Hate Worldwide
4. Seasons in the Abyss
5. Angel of Death
6. Mandatory Suicide
7. Chemical Warfare
8. South of Heaven
9. Raining Blood


Metallica set list

1. Creeping Death
2. For Whom The Bell Tolls
3. Harvester Of Sorrow
4. Kirk Hammett Solo w/ Rock Bottom (UFO) riff
5. Fade To Black
6. Cyanide
7. One
8. Master Of Puppets
9. Nothing Else Matters
10. Enter Sandman
11. Am I Evil?
12. Hit The Lights
13. Seek and Destroy

-------------------------------------------------------------------------------
                                 Install Notes
-------------------------------------------------------------------------------
General
Complete name                    : G:VIDEO_TSVTS_01_3.VOB
Format                           : MPEG-PS
File size                        : 1 024 MiB
Duration                         : 56mn 52s
Overall bit rate                 : 2 517 Kbps

Video
ID                               : 224 (0xE0)
Format                           : MPEG Video
Format version                   : Version 2
Format profile                   : Main@Main
Format settings, BVOP            : Yes
Format settings, Matrix          : Default
Format settings, GOP             : M=3, N=13
Duration                         : 56mn 52s
Bit rate mode                    : Variable
Bit rate                         : 2 275 Kbps
Nominal bit rate                 : 9 008 Kbps
Width                            : 720 pixels
Height                           : 480 pixels
Display aspect ratio             : 16:9
Frame rate                       : 29.970 fps
Standard                         : NTSC
Color space                      : YUV
Chroma subsampling               : 4:2:0
Bit depth                        : 8 bits
Scan type                        : Progressive
Bits/(Pixel*Frame)               : 0.220
Stream size                      : 925 MiB (90%)

Audio
ID                               : 128 (0x80)
Format                           : AC-3
Format/Info                      : Audio Coding 3
Mode extension                   : CM (complete main)
Duration                         : 56mn 52s
Bit rate mode                    : Constant
Bit rate                         : 192 Kbps
Channel(s)                       : 2 channels
Channel positions                : Front: L R
Sampling rate                    : 48.0 KHz
Video delay                      : -409ms
Stream size                      : 78.1 MiB (8%)

P.S.: I had to resynch the audio for the Metallica part, it was 200ms out of 
synch, please feel free to use this source for avi rip 





